<svg width="72" height="72" viewBox="0 0 72 72" fill="none" xmlns="http://www.w3.org/2000/svg">
<path d="M71.9883 35.6362C71.9158 34.4946 71.5028 33.401 70.8027 32.4965C70.1026 31.5919 69.1474 30.918 68.0605 30.5615C66.9736 30.2051 65.8049 30.1826 64.7051 30.4969C63.6053 30.8112 62.6249 31.4479 61.8905 32.3248C61.733 32.5185 61.535 32.6752 61.3103 32.784C61.0857 32.8927 60.8399 32.9508 60.5904 32.9542H58.6531C58.1273 29.0193 56.5821 25.2902 54.1708 22.1367L55.6031 20.7043C55.7681 20.5457 55.9663 20.4259 56.1835 20.3536C56.4006 20.2814 56.6311 20.2586 56.8582 20.2868C57.6294 20.3615 58.4077 20.2788 59.146 20.0437C59.8842 19.8086 60.5671 19.4261 61.1531 18.9193C61.7392 18.4125 62.2162 17.792 62.5553 17.0953C62.8944 16.3987 63.0885 15.6404 63.1258 14.8665C63.1632 14.0926 63.043 13.3192 62.7726 12.5931C62.5022 11.8671 62.0871 11.2035 61.5526 10.6426C61.0181 10.0817 60.3753 9.63517 59.6631 9.33009C58.9509 9.02501 58.1842 8.86774 57.4094 8.86779H57.4084C56.6073 8.8678 55.8152 9.03602 55.0833 9.36156C54.3513 9.68709 53.6959 10.1627 53.1594 10.7576C52.6229 11.3524 52.2173 12.0533 51.9688 12.8149C51.7204 13.5765 51.6345 14.3817 51.717 15.1785C51.7355 15.4142 51.7018 15.6511 51.6184 15.8723C51.5351 16.0935 51.404 16.2936 51.2346 16.4585L49.8634 17.8296C46.71 15.4181 42.981 13.8728 39.0462 13.3471V11.4098C39.0496 11.1603 39.1076 10.9146 39.2163 10.69C39.3249 10.4654 39.4816 10.2674 39.6751 10.1099C40.5521 9.37554 41.189 8.39515 41.5034 7.29529C41.8178 6.19543 41.7954 5.02658 41.439 3.93959C41.0826 2.8526 40.4086 1.89737 39.504 1.19719C38.5995 0.497002 37.5058 0.0839987 36.3642 0.0114811C36.2432 0.00384423 36.122 1.74212e-05 36.0006 2.51108e-08H36.0003C34.8182 -0.000110688 33.665 0.365878 32.6993 1.04767C31.7336 1.72946 31.0028 2.6936 30.6072 3.80758C30.2116 4.92157 30.1707 6.13073 30.4901 7.26889C30.8095 8.40706 31.4736 9.41838 32.391 10.1639C32.5707 10.3174 32.7144 10.5086 32.8118 10.724C32.9092 10.9393 32.958 11.1735 32.9547 11.4098V13.347C29.0199 13.8729 25.2909 15.4182 22.1375 17.8296L20.7052 16.397C20.5472 16.2318 20.4279 16.0336 20.3557 15.8168C20.2835 15.5999 20.2602 15.3697 20.2876 15.1428C20.3961 14.001 20.1592 12.8529 19.6076 11.8473C19.0561 10.8417 18.2153 10.0248 17.1942 9.50249C16.1731 8.98017 15.0187 8.77647 13.8805 8.91776C12.7424 9.05905 11.6728 9.53883 10.8104 10.295C10.2207 10.8104 9.74405 11.4422 9.41039 12.1508C9.07674 12.8594 8.8933 13.6293 8.87163 14.4122C8.84853 15.1934 8.98502 15.9711 9.27275 16.6977C9.56048 17.4243 9.99341 18.0846 10.5451 18.6382C11.0751 19.171 11.7056 19.5934 12.3999 19.8809C13.0943 20.1685 13.8388 20.3155 14.5903 20.3135C14.7872 20.3134 14.9839 20.3033 15.1797 20.2833C15.4154 20.2637 15.6525 20.2968 15.8739 20.3802C16.0952 20.4637 16.2951 20.5953 16.4592 20.7657L17.8301 22.1366C15.4189 25.2902 13.8737 29.0193 13.3478 32.9541H11.4106C11.161 32.9508 10.9153 32.8927 10.6907 32.7839C10.4661 32.6752 10.2681 32.5185 10.1107 32.3248C9.35394 31.4213 8.33671 30.7734 7.19796 30.4697C6.05921 30.166 4.85447 30.2213 3.7483 30.628C2.64214 31.0347 1.6885 31.773 1.01765 32.742C0.346801 33.711 -0.0085445 34.8635 0.000156037 36.042C0.00885658 37.2205 0.381179 38.3676 1.06626 39.3266C1.75135 40.2856 2.71578 41.0098 3.82783 41.4001C4.93987 41.7904 6.1453 41.8278 7.27945 41.5074C8.41359 41.1869 9.42114 40.5241 10.1645 39.6095C10.318 39.4297 10.5093 39.286 10.7247 39.1885C10.9401 39.0911 11.1744 39.0423 11.4108 39.0456H13.348C13.874 42.9804 15.4191 46.7093 17.8303 49.8629L16.3979 51.2955C16.2326 51.4532 16.0345 51.5724 15.8178 51.6445C15.601 51.7167 15.371 51.7401 15.1442 51.713C14.9615 51.6953 14.7752 51.6863 14.5905 51.6863C13.4334 51.6864 12.3036 52.0372 11.3499 52.6924C10.3963 53.3477 9.66365 54.2766 9.24861 55.3566C8.83357 56.4367 8.75562 57.6172 9.02506 58.7424C9.2945 59.8677 9.89866 60.8848 10.7579 61.6598C11.6171 62.4347 12.691 62.931 13.838 63.0832C14.985 63.2355 16.1512 63.0365 17.1828 62.5125C18.2144 61.9885 19.063 61.1642 19.6166 60.1482C20.1702 59.1322 20.4029 57.9722 20.2839 56.8213C20.2655 56.5856 20.2991 56.3488 20.3825 56.1276C20.4659 55.9064 20.5969 55.7062 20.7663 55.5414L22.1375 54.1705C25.2909 56.582 29.0199 58.1272 32.9547 58.653V60.5903C32.9513 60.8398 32.8933 61.0855 32.7846 61.3101C32.676 61.5347 32.5194 61.7328 32.3258 61.8902C31.4488 62.6246 30.8119 63.605 30.4975 64.7048C30.1831 65.8047 30.2055 66.9735 30.5619 68.0605C30.9183 69.1475 31.5923 70.1027 32.4969 70.8029C33.4014 71.5031 34.4951 71.9161 35.6367 71.9887C35.7585 71.9963 35.8801 72 36.0003 72C37.1825 72.0002 38.3357 71.6343 39.3014 70.9525C40.2672 70.2708 40.9981 69.3067 41.3937 68.1927C41.7894 67.0787 41.8303 65.8695 41.5108 64.7313C41.1914 63.5931 40.5274 62.5818 39.6099 61.8363C39.4302 61.6828 39.2865 61.4915 39.1891 61.2761C39.0917 61.0608 39.0429 60.8266 39.0463 60.5902V58.653C42.9811 58.1272 46.7101 56.5819 49.8637 54.1705L51.296 55.6031C51.4539 55.7682 51.5732 55.9663 51.6453 56.1831C51.7175 56.3999 51.7406 56.63 51.7132 56.8568V56.8571C51.6048 57.9989 51.8417 59.1469 52.3932 60.1526C52.9448 61.1582 53.7855 61.975 54.8066 62.4974C55.8277 63.0197 56.9821 63.2234 58.1202 63.0821C59.2584 62.9409 60.328 62.4611 61.1904 61.705C61.7801 61.1896 62.2568 60.5578 62.5904 59.8492C62.9241 59.1406 63.1075 58.3707 63.1292 57.5878C63.1524 56.8066 63.0159 56.0289 62.7282 55.3023C62.4404 54.5757 62.0075 53.9154 61.4558 53.3619C60.9257 52.829 60.2953 52.4066 59.6009 52.119C58.9066 51.8314 58.162 51.6844 57.4105 51.6864C57.2139 51.6864 57.0174 51.6965 56.8218 51.7166C56.5861 51.736 56.349 51.7027 56.1276 51.6193C55.9063 51.5359 55.7062 51.4044 55.5418 51.2342L54.1707 49.8632C56.5821 46.7097 58.1274 42.9806 58.6531 39.0458H60.5902C60.8266 39.0424 61.0608 39.0912 61.2762 39.1887C61.4915 39.2861 61.6828 39.4298 61.8363 39.6096C62.6015 40.551 63.646 41.2249 64.8191 41.534C65.9922 41.8432 67.2332 41.7715 68.363 41.3293C69.4927 40.8871 70.4527 40.0974 71.1043 39.0741C71.756 38.0508 72.0655 36.8469 71.9883 35.6362ZM28.8568 34.0167C28.0254 34.0167 27.2126 33.7701 26.5213 33.3082C25.83 32.8463 25.2912 32.1897 24.9731 31.4216C24.6549 30.6535 24.5717 29.8082 24.7339 28.9928C24.8961 28.1773 25.2964 27.4283 25.8843 26.8404C26.4722 26.2525 27.2212 25.8521 28.0367 25.6899C28.8521 25.5277 29.6973 25.6109 30.4655 25.9291C31.2336 26.2473 31.8901 26.7861 32.352 27.4774C32.8139 28.1687 33.0605 28.9815 33.0605 29.8129C33.0592 30.9274 32.616 31.9959 31.8279 32.784C31.0398 33.5721 29.9713 34.0154 28.8568 34.0167ZM47.8887 44.2972C47.399 44.9265 46.7699 45.4335 46.0509 45.7783C45.3319 46.1232 44.5427 46.2964 43.7454 46.2843C42.9481 46.2723 42.1645 46.0753 41.4562 45.7089C40.748 45.3425 40.1345 44.8167 39.664 44.1729C39.069 44.2838 38.4562 44.2513 37.8763 44.078C37.2964 43.9048 36.7661 43.5958 36.3295 43.1767C35.8929 42.7576 35.5625 42.2404 35.3656 41.6681C35.1688 41.0958 35.1112 40.4848 35.1977 39.8857C35.2841 39.2867 35.5121 38.7169 35.8627 38.2236C36.2134 37.7303 36.6766 37.3277 37.2139 37.0492C37.7512 36.7706 38.3472 36.6242 38.9524 36.622C39.5576 36.6198 40.1546 36.7619 40.6939 37.0365C41.6891 36.2763 42.9271 35.9045 44.1765 35.9906C45.4259 36.0767 46.6011 36.6148 47.4826 37.5044C48.3641 38.394 48.8915 39.5741 48.9663 40.8242C49.041 42.0744 48.658 43.3089 47.8887 44.2972Z" fill="#FFCC1B"/>
</svg>
