<svg width="68" height="72" viewBox="0 0 68 72" fill="none" xmlns="http://www.w3.org/2000/svg">
<path d="M38.5 35.8734C37.2574 35.8734 36.25 36.8806 36.25 38.1234C36.25 39.366 37.2574 40.2469 38.5 40.2469C39.7426 40.2469 40.75 39.2396 40.75 38.1234C40.75 37.0125 39.7375 35.8734 38.5 35.8734ZM29.5 26.8734C28.2574 26.8734 27.25 27.8806 27.25 29.1234C27.25 30.366 28.2574 31.3734 29.3734 31.3734C30.4894 31.3734 31.6234 30.366 31.6234 29.1234C31.75 28.0125 30.7375 26.8734 29.5 26.8734ZM63.6016 11.7675L36.6016 0.516094C35.9125 0.230766 34.7453 0 34.0141 0C33.2547 0 32.1016 0.230766 31.4125 0.516375L4.4125 11.7678C1.89391 12.8067 0.25 15.2719 0.25 17.8734C0.25 54.1688 26.8562 72 33.9859 72C41.3013 72 67.75 53.9719 67.75 18C67.75 15.2719 66.1047 12.8067 63.6016 11.7675ZM52 35.8734H50.2956C47.583 35.8734 45.7872 38.0925 45.7872 40.4058C45.7872 41.5114 46.1975 42.6389 47.1141 43.5558L48.3201 44.7618C48.7596 45.2012 48.9794 45.7768 48.9794 46.3522C48.9794 47.5514 48.014 48.4757 46.7294 48.4757C46.1537 48.4757 45.5779 48.256 45.1389 47.8164L43.9329 46.6104C43.0162 45.6937 41.8896 45.2835 40.7829 45.2835C38.4696 45.2835 36.2506 47.0793 36.2506 49.7919V51.4963C36.2506 52.74 35.2443 53.7463 34.0006 53.7463C32.7569 53.7463 31.7506 52.74 31.7506 51.4963V49.7919C31.7506 47.0793 29.5315 45.2835 27.2182 45.2835C26.1126 45.2835 24.9865 45.6937 24.0696 46.6104L22.8636 47.8164C22.4242 48.2559 21.8485 48.4757 21.2732 48.4757C19.988 48.4757 19.0232 47.4248 19.0232 46.3522C19.0232 45.7765 19.2428 45.201 19.6824 44.7618L20.8884 43.5558C21.8051 42.639 22.2153 41.5125 22.2153 40.4058C22.2153 38.0925 20.4196 35.8734 17.7069 35.8734H16C14.7563 35.8734 13.75 34.8671 13.75 33.6234C13.75 32.3797 14.7563 31.3734 16 31.3734H17.7044C20.417 31.3734 22.2128 29.1544 22.2128 26.8411C22.2128 25.7355 21.8025 24.608 20.8859 23.6911L19.6844 22.6125C19.2344 22.1766 19.0234 21.6 19.0234 21.0234C19.0234 19.8243 19.9888 18.9 21.2734 18.9C21.8492 18.9 22.4249 19.1197 22.8639 19.5592L24.0719 20.6297C24.9859 21.5578 26.1109 21.9656 27.2219 21.9656C29.5352 21.9656 31.7542 20.1698 31.7542 17.4558V15.6234C31.7542 14.3798 32.7605 13.3734 34.0042 13.3734C35.2479 13.3734 36.2542 14.3798 36.2542 15.6234V17.3278C36.2542 20.0405 38.4733 21.8377 40.7866 21.8377C41.8922 21.8377 43.0197 21.4275 43.9366 20.5107L45.1426 19.3046C45.582 18.8651 46.1577 18.6453 46.733 18.6453C48.0182 18.6453 48.983 19.6962 48.983 20.7688C48.983 21.3445 48.7634 21.9201 48.3238 22.3592L47.1178 23.5654C46.201 24.4821 45.7908 25.6087 45.7908 26.7154C45.7908 29.0287 47.5866 31.2477 50.2993 31.2477H52.0037C53.2473 31.2477 54.2537 32.254 54.2537 33.4977C54.2537 34.7414 53.2375 35.8734 52 35.8734Z" fill="#FFCC1B"/>
</svg>
