<svg width="73" height="72" viewBox="0 0 73 72" fill="none" xmlns="http://www.w3.org/2000/svg">
<path d="M72.4883 35.6362C72.4158 34.4946 72.0028 33.401 71.3027 32.4965C70.6026 31.5919 69.6474 30.918 68.5605 30.5615C67.4736 30.2051 66.3049 30.1826 65.2051 30.4969C64.1053 30.8112 63.1249 31.4479 62.3905 32.3248C62.233 32.5185 62.035 32.6752 61.8103 32.784C61.5857 32.8927 61.3399 32.9508 61.0904 32.9542H59.1531C58.6273 29.0193 57.0821 25.2902 54.6708 22.1367L56.1031 20.7043C56.2681 20.5457 56.4663 20.4259 56.6835 20.3536C56.9006 20.2814 57.1311 20.2586 57.3582 20.2868C58.1294 20.3615 58.9077 20.2788 59.646 20.0437C60.3842 19.8086 61.0671 19.4261 61.6531 18.9193C62.2392 18.4125 62.7162 17.792 63.0553 17.0953C63.3944 16.3987 63.5885 15.6404 63.6258 14.8665C63.6632 14.0926 63.543 13.3192 63.2726 12.5931C63.0022 11.8671 62.5871 11.2035 62.0526 10.6426C61.5181 10.0817 60.8753 9.63517 60.1631 9.33009C59.4509 9.02501 58.6842 8.86774 57.9094 8.86779H57.9084C57.1073 8.8678 56.3152 9.03602 55.5833 9.36156C54.8513 9.68709 54.1959 10.1627 53.6594 10.7576C53.1229 11.3524 52.7173 12.0533 52.4688 12.8149C52.2204 13.5765 52.1345 14.3817 52.217 15.1785C52.2355 15.4142 52.2018 15.6511 52.1184 15.8723C52.0351 16.0935 51.904 16.2936 51.7346 16.4585L50.3634 17.8296C47.21 15.4181 43.481 13.8728 39.5462 13.3471V11.4098C39.5496 11.1603 39.6076 10.9146 39.7163 10.69C39.8249 10.4654 39.9816 10.2674 40.1751 10.1099C41.0521 9.37554 41.689 8.39515 42.0034 7.29529C42.3178 6.19543 42.2954 5.02658 41.939 3.93959C41.5826 2.8526 40.9086 1.89737 40.004 1.19719C39.0995 0.497002 38.0058 0.0839987 36.8642 0.0114811C36.7432 0.00384423 36.622 1.74212e-05 36.5006 2.51108e-08H36.5003C35.3182 -0.000110688 34.165 0.365878 33.1993 1.04767C32.2336 1.72946 31.5028 2.6936 31.1072 3.80758C30.7116 4.92157 30.6707 6.13073 30.9901 7.26889C31.3095 8.40706 31.9736 9.41838 32.891 10.1639C33.0707 10.3174 33.2144 10.5086 33.3118 10.724C33.4092 10.9393 33.458 11.1735 33.4547 11.4098V13.347C29.5199 13.8729 25.7909 15.4182 22.6375 17.8296L21.2052 16.397C21.0472 16.2318 20.9279 16.0336 20.8557 15.8168C20.7835 15.5999 20.7602 15.3697 20.7876 15.1428C20.8961 14.001 20.6592 12.8529 20.1076 11.8473C19.5561 10.8417 18.7153 10.0248 17.6942 9.50249C16.6731 8.98017 15.5187 8.77647 14.3805 8.91776C13.2424 9.05905 12.1728 9.53883 11.3104 10.295C10.7207 10.8104 10.244 11.4422 9.91039 12.1508C9.57674 12.8594 9.3933 13.6293 9.37163 14.4122C9.34853 15.1934 9.48502 15.9711 9.77275 16.6977C10.0605 17.4243 10.4934 18.0846 11.0451 18.6382C11.5751 19.171 12.2056 19.5934 12.8999 19.8809C13.5943 20.1685 14.3388 20.3155 15.0903 20.3135C15.2872 20.3134 15.4839 20.3033 15.6797 20.2833C15.9154 20.2637 16.1525 20.2968 16.3739 20.3802C16.5952 20.4637 16.7951 20.5953 16.9592 20.7657L18.3301 22.1366C15.9189 25.2902 14.3737 29.0193 13.8478 32.9541H11.9106C11.661 32.9508 11.4153 32.8927 11.1907 32.7839C10.9661 32.6752 10.7681 32.5185 10.6107 32.3248C9.85394 31.4213 8.83671 30.7734 7.69796 30.4697C6.55921 30.166 5.35447 30.2213 4.2483 30.628C3.14214 31.0347 2.1885 31.773 1.51765 32.742C0.846801 33.711 0.491455 34.8635 0.500156 36.042C0.508857 37.2205 0.881179 38.3676 1.56626 39.3266C2.25135 40.2856 3.21578 41.0098 4.32783 41.4001C5.43987 41.7904 6.6453 41.8278 7.77945 41.5074C8.91359 41.1869 9.92114 40.5241 10.6645 39.6095C10.818 39.4297 11.0093 39.286 11.2247 39.1885C11.4401 39.0911 11.6744 39.0423 11.9108 39.0456H13.848C14.374 42.9804 15.9191 46.7093 18.3303 49.8629L16.8979 51.2955C16.7326 51.4532 16.5345 51.5724 16.3178 51.6445C16.101 51.7167 15.871 51.7401 15.6442 51.713C15.4615 51.6953 15.2752 51.6863 15.0905 51.6863C13.9334 51.6864 12.8036 52.0372 11.8499 52.6924C10.8963 53.3477 10.1637 54.2766 9.74861 55.3566C9.33357 56.4367 9.25562 57.6172 9.52506 58.7424C9.7945 59.8677 10.3987 60.8848 11.2579 61.6598C12.1171 62.4347 13.191 62.931 14.338 63.0832C15.485 63.2355 16.6512 63.0365 17.6828 62.5125C18.7144 61.9885 19.563 61.1642 20.1166 60.1482C20.6702 59.1322 20.9029 57.9722 20.7839 56.8213C20.7655 56.5856 20.7991 56.3488 20.8825 56.1276C20.9659 55.9064 21.0969 55.7062 21.2663 55.5414L22.6375 54.1705C25.7909 56.582 29.5199 58.1272 33.4547 58.653V60.5903C33.4513 60.8398 33.3933 61.0855 33.2846 61.3101C33.176 61.5347 33.0194 61.7328 32.8258 61.8902C31.9488 62.6246 31.3119 63.605 30.9975 64.7048C30.6831 65.8047 30.7055 66.9735 31.0619 68.0605C31.4183 69.1475 32.0923 70.1027 32.9969 70.8029C33.9014 71.5031 34.9951 71.9161 36.1367 71.9887C36.2585 71.9963 36.3801 72 36.5003 72C37.6825 72.0002 38.8357 71.6343 39.8014 70.9525C40.7672 70.2708 41.4981 69.3067 41.8937 68.1927C42.2894 67.0787 42.3303 65.8695 42.0108 64.7313C41.6914 63.5931 41.0274 62.5818 40.1099 61.8363C39.9302 61.6828 39.7865 61.4915 39.6891 61.2761C39.5917 61.0608 39.5429 60.8266 39.5463 60.5902V58.653C43.4811 58.1272 47.2101 56.5819 50.3637 54.1705L51.796 55.6031C51.9539 55.7682 52.0732 55.9663 52.1453 56.1831C52.2175 56.3999 52.2406 56.63 52.2132 56.8568V56.8571C52.1048 57.9989 52.3417 59.1469 52.8932 60.1526C53.4448 61.1582 54.2855 61.975 55.3066 62.4974C56.3277 63.0197 57.4821 63.2234 58.6202 63.0821C59.7584 62.9409 60.828 62.4611 61.6904 61.705C62.2801 61.1896 62.7568 60.5578 63.0904 59.8492C63.4241 59.1406 63.6075 58.3707 63.6292 57.5878C63.6524 56.8066 63.5159 56.0289 63.2282 55.3023C62.9404 54.5757 62.5075 53.9154 61.9558 53.3619C61.4257 52.829 60.7953 52.4066 60.1009 52.119C59.4066 51.8314 58.662 51.6844 57.9105 51.6864C57.7139 51.6864 57.5174 51.6965 57.3218 51.7166C57.0861 51.736 56.849 51.7027 56.6276 51.6193C56.4063 51.5359 56.2062 51.4044 56.0418 51.2342L54.6707 49.8632C57.0821 46.7097 58.6274 42.9806 59.1531 39.0458H61.0902C61.3266 39.0424 61.5608 39.0912 61.7762 39.1887C61.9915 39.2861 62.1828 39.4298 62.3363 39.6096C63.1015 40.551 64.146 41.2249 65.3191 41.534C66.4922 41.8432 67.7332 41.7715 68.863 41.3293C69.9927 40.8871 70.9527 40.0974 71.6043 39.0741C72.256 38.0508 72.5655 36.8469 72.4883 35.6362ZM29.3568 34.0167C28.5254 34.0167 27.7126 33.7701 27.0213 33.3082C26.33 32.8463 25.7912 32.1897 25.4731 31.4216C25.1549 30.6535 25.0717 29.8082 25.2339 28.9928C25.3961 28.1773 25.7964 27.4283 26.3843 26.8404C26.9722 26.2525 27.7212 25.8521 28.5367 25.6899C29.3521 25.5277 30.1973 25.6109 30.9655 25.9291C31.7336 26.2473 32.3901 26.7861 32.852 27.4774C33.3139 28.1687 33.5605 28.9815 33.5605 29.8129C33.5592 30.9274 33.116 31.9959 32.3279 32.784C31.5398 33.5721 30.4713 34.0154 29.3568 34.0167ZM48.3887 44.2972C47.899 44.9265 47.2699 45.4335 46.5509 45.7783C45.8319 46.1232 45.0427 46.2964 44.2454 46.2843C43.4481 46.2723 42.6645 46.0753 41.9562 45.7089C41.248 45.3425 40.6345 44.8167 40.164 44.1729C39.569 44.2838 38.9562 44.2513 38.3763 44.078C37.7964 43.9048 37.2661 43.5958 36.8295 43.1767C36.3929 42.7576 36.0625 42.2404 35.8656 41.6681C35.6688 41.0958 35.6112 40.4848 35.6977 39.8857C35.7841 39.2867 36.0121 38.7169 36.3627 38.2236C36.7134 37.7303 37.1766 37.3277 37.7139 37.0492C38.2512 36.7706 38.8472 36.6242 39.4524 36.622C40.0576 36.6198 40.6546 36.7619 41.1939 37.0365C42.1891 36.2763 43.4271 35.9045 44.6765 35.9906C45.9259 36.0767 47.1011 36.6148 47.9826 37.5044C48.8641 38.394 49.3915 39.5741 49.4663 40.8242C49.541 42.0744 49.158 43.3089 48.3887 44.2972Z" fill="#FFCC1B"/>
<circle cx="36" cy="36.5" r="15.5" fill="#FFCC1B"/>
<path d="M23.3236 36.8C23.2596 37.52 23.0036 38.088 22.5716 38.512C22.1316 38.928 21.5316 39.144 20.7716 39.144C19.9396 39.144 19.2756 38.864 18.7716 38.32C18.2676 37.776 18.0196 37.048 18.0196 36.152C18.0196 35.296 18.2676 34.584 18.7796 34.024C19.2916 33.456 19.9716 33.176 20.8196 33.176C21.4916 33.176 22.0596 33.368 22.5236 33.752C22.9796 34.136 23.2356 34.624 23.2836 35.216H22.0596C21.9956 34.896 21.8516 34.656 21.6276 34.48C21.4036 34.304 21.1316 34.224 20.7956 34.224C20.4436 34.224 20.1556 34.32 19.9156 34.512C19.6756 34.704 19.5156 34.944 19.4196 35.224C19.3236 35.512 19.2756 35.816 19.2756 36.152C19.2756 36.744 19.4116 37.208 19.6836 37.56C19.9556 37.912 20.3156 38.08 20.7796 38.08C21.5396 38.08 21.9716 37.656 22.0836 36.8H23.3236ZM26.7413 33.168C27.5733 33.168 28.2453 33.448 28.7573 34C29.2693 34.552 29.5333 35.272 29.5333 36.16C29.5333 37.056 29.2693 37.776 28.7573 38.32C28.2453 38.864 27.5653 39.136 26.7333 39.136C25.8853 39.136 25.2053 38.864 24.6933 38.32C24.1733 37.776 23.9173 37.056 23.9173 36.16C23.9173 35.264 24.1733 34.536 24.6853 33.992C25.1973 33.448 25.8853 33.168 26.7413 33.168ZM26.7253 34.192C26.2533 34.192 25.8773 34.376 25.5973 34.728C25.3173 35.08 25.1733 35.552 25.1733 36.144C25.1733 36.752 25.3173 37.232 25.5893 37.584C25.8693 37.928 26.2533 38.104 26.7413 38.112C27.2133 38.112 27.5893 37.936 27.8613 37.584C28.1333 37.232 28.2693 36.752 28.2693 36.144C28.2693 35.544 28.1253 35.072 27.8533 34.72C27.5733 34.368 27.1973 34.192 26.7253 34.192ZM29.7758 33.304H31.0798L32.3598 37.304L33.6558 33.304H34.9518L33.0558 39H31.6398L29.7758 33.304ZM36.6869 33.304V39H35.4309V33.304H36.6869ZM37.7983 39V33.304H40.1023C40.9823 33.304 41.6623 33.552 42.1423 34.04C42.6223 34.536 42.8623 35.24 42.8623 36.152C42.8623 37.072 42.6223 37.776 42.1423 38.264C41.6623 38.76 40.9823 39 40.1023 39H37.7983ZM39.0383 37.96H39.9423C41.0463 37.96 41.5983 37.36 41.5983 36.152C41.5983 35.576 41.4623 35.128 41.1903 34.816C40.9183 34.504 40.5023 34.344 39.9503 34.344H39.0383V37.96ZM46 36.312V37.328H43.592V36.312H46ZM49.5938 33.4V39H48.3858V35.36H47.0258V34.52H47.1698C48.0178 34.52 48.5138 34.152 48.6578 33.4H49.5938ZM51.1031 37.592H52.1831C52.2711 38.024 52.5271 38.232 52.9511 38.232C53.1431 38.232 53.3111 38.184 53.4471 38.072C53.5831 37.968 53.6871 37.816 53.7591 37.624C53.8231 37.432 53.8791 37.264 53.9111 37.104C53.9431 36.944 53.9671 36.76 53.9831 36.552C53.6791 36.984 53.2791 37.2 52.7831 37.2C52.2631 37.2 51.8391 37.032 51.5031 36.68C51.1671 36.336 51.0071 35.896 51.0071 35.352C51.0071 34.784 51.1991 34.312 51.5831 33.928C51.9671 33.544 52.4471 33.352 53.0231 33.352C53.3911 33.352 53.7191 33.432 53.9991 33.592C54.2791 33.752 54.4951 33.96 54.6551 34.224C54.8071 34.496 54.9191 34.784 54.9991 35.088C55.0711 35.4 55.1111 35.728 55.1111 36.08C55.1111 36.448 55.0711 36.792 54.9991 37.128C54.9191 37.464 54.8071 37.784 54.6471 38.088C54.4871 38.392 54.2631 38.64 53.9751 38.824C53.6791 39.008 53.3351 39.096 52.9431 39.096C52.4311 39.096 52.0151 38.96 51.6791 38.688C51.3511 38.416 51.1591 38.056 51.1031 37.592ZM52.9991 34.288C52.7431 34.288 52.5351 34.392 52.3671 34.584C52.1991 34.776 52.1191 35.024 52.1191 35.312C52.1191 35.616 52.1991 35.856 52.3671 36.048C52.5271 36.24 52.7431 36.336 53.0071 36.336C53.2631 36.336 53.4711 36.24 53.6391 36.048C53.8071 35.856 53.8951 35.616 53.8951 35.32C53.8951 35.032 53.8071 34.784 53.6391 34.584C53.4631 34.392 53.2551 34.288 52.9991 34.288Z" fill="white"/>
</svg>
