<svg width="61" height="60" viewBox="0 0 61 60" fill="none" xmlns="http://www.w3.org/2000/svg">
<path d="M57.5 42H54.5V24C54.5 17.6348 51.9714 11.5303 47.4706 7.02944C42.9697 2.52856 36.8652 0 30.5 0C24.1348 0 18.0303 2.52856 13.5294 7.02944C9.02856 11.5303 6.5 17.6348 6.5 24V42H3.5C2.70435 42 1.94129 42.3161 1.37868 42.8787C0.81607 43.4413 0.5 44.2043 0.5 45V57C0.5 57.7957 0.81607 58.5587 1.37868 59.1213C1.94129 59.6839 2.70435 60 3.5 60H57.5C58.2957 60 59.0587 59.6839 59.6213 59.1213C60.1839 58.5587 60.5 57.7957 60.5 57V45C60.5 44.2043 60.1839 43.4413 59.6213 42.8787C59.0587 42.3161 58.2957 42 57.5 42ZM30.5 12V18C28.9087 18 27.3826 18.6321 26.2574 19.7574C25.1321 20.8826 24.5 22.4087 24.5 24H18.5C18.5 20.8174 19.7643 17.7652 22.0147 15.5147C24.2652 13.2643 27.3174 12 30.5 12ZM54.5 54H6.5V48H54.5V54Z" fill="#FFCC1B"/>
</svg>
