<svg width="72" height="72" viewBox="0 0 72 72" fill="none" xmlns="http://www.w3.org/2000/svg">
<path d="M40.5 35.8734C39.2574 35.8734 38.25 36.8806 38.25 38.1234C38.25 39.366 39.2574 40.2469 40.5 40.2469C41.7426 40.2469 42.75 39.2396 42.75 38.1234C42.75 37.0125 41.7375 35.8734 40.5 35.8734ZM31.5 26.8734C30.2574 26.8734 29.25 27.8806 29.25 29.1234C29.25 30.366 30.2574 31.3734 31.3734 31.3734C32.4894 31.3734 33.6234 30.366 33.6234 29.1234C33.75 28.0125 32.7375 26.8734 31.5 26.8734ZM65.6016 11.7675L38.6016 0.516094C37.9125 0.230766 36.7453 0 36.0141 0C35.2547 0 34.1016 0.230766 33.4125 0.516375L6.4125 11.7678C3.89391 12.8067 2.25 15.2719 2.25 17.8734C2.25 54.1688 28.8562 72 35.9859 72C43.3013 72 69.75 53.9719 69.75 18C69.75 15.2719 68.1047 12.8067 65.6016 11.7675ZM54 35.8734H52.2956C49.583 35.8734 47.7872 38.0925 47.7872 40.4058C47.7872 41.5114 48.1975 42.6389 49.1141 43.5558L50.3201 44.7618C50.7596 45.2012 50.9794 45.7768 50.9794 46.3522C50.9794 47.5514 50.014 48.4757 48.7294 48.4757C48.1537 48.4757 47.5779 48.256 47.1389 47.8164L45.9329 46.6104C45.0162 45.6937 43.8896 45.2835 42.7829 45.2835C40.4696 45.2835 38.2506 47.0793 38.2506 49.7919V51.4963C38.2506 52.74 37.2443 53.7463 36.0006 53.7463C34.7569 53.7463 33.7506 52.74 33.7506 51.4963V49.7919C33.7506 47.0793 31.5315 45.2835 29.2182 45.2835C28.1126 45.2835 26.9865 45.6937 26.0696 46.6104L24.8636 47.8164C24.4242 48.2559 23.8485 48.4757 23.2732 48.4757C21.988 48.4757 21.0232 47.4248 21.0232 46.3522C21.0232 45.7765 21.2428 45.201 21.6824 44.7618L22.8884 43.5558C23.8051 42.639 24.2153 41.5125 24.2153 40.4058C24.2153 38.0925 22.4196 35.8734 19.7069 35.8734H18C16.7563 35.8734 15.75 34.8671 15.75 33.6234C15.75 32.3797 16.7563 31.3734 18 31.3734H19.7044C22.417 31.3734 24.2128 29.1544 24.2128 26.8411C24.2128 25.7355 23.8025 24.608 22.8859 23.6911L21.6844 22.6125C21.2344 22.1766 21.0234 21.6 21.0234 21.0234C21.0234 19.8243 21.9888 18.9 23.2734 18.9C23.8492 18.9 24.4249 19.1197 24.8639 19.5592L26.0719 20.6297C26.9859 21.5578 28.1109 21.9656 29.2219 21.9656C31.5352 21.9656 33.7542 20.1698 33.7542 17.4558V15.6234C33.7542 14.3798 34.7605 13.3734 36.0042 13.3734C37.2479 13.3734 38.2542 14.3798 38.2542 15.6234V17.3278C38.2542 20.0405 40.4733 21.8377 42.7866 21.8377C43.8922 21.8377 45.0197 21.4275 45.9366 20.5107L47.1426 19.3046C47.582 18.8651 48.1577 18.6453 48.733 18.6453C50.0182 18.6453 50.983 19.6962 50.983 20.7688C50.983 21.3445 50.7634 21.9201 50.3238 22.3592L49.1178 23.5654C48.201 24.4821 47.7908 25.6087 47.7908 26.7154C47.7908 29.0287 49.5866 31.2477 52.2993 31.2477H54.0037C55.2473 31.2477 56.2537 32.254 56.2537 33.4977C56.2537 34.7414 55.2375 35.8734 54 35.8734Z" fill="#FFCC1B"/>
</svg>
