<svg width="72" height="72" viewBox="0 0 72 72" fill="none" xmlns="http://www.w3.org/2000/svg">
<path d="M60 43.5C60 43.5 53.1 60 36 60C18.9 60 12 43.5 12 43.5C12 43.5 24.3 46.5 35.7 46.5C47.1 46.5 60 43.5 60 43.5Z" fill="#FFCC1B"/>
<path d="M63.8992 25.5C51.2992 21.6 41.3992 12 35.9992 12C30.5992 12 20.6992 21.6 8.0992 25.5C5.9992 26.1 5.0992 28.5 6.2992 30.3C8.9992 33.9 11.9992 34.2 11.9992 38.4C11.9992 38.4 23.9992 41.4 35.9992 41.4C47.9992 41.4 59.9992 38.4 59.9992 38.4C59.9992 34.2 62.9992 33.9 65.3992 30C66.5992 28.5 65.6992 26.1 63.8992 25.5ZM35.9992 36C32.6992 36 29.9992 30.3 29.9992 27C29.9992 27 32.6992 24 35.9992 24C39.2992 24 41.9992 27 41.9992 27C41.9992 30.3 39.2992 36 35.9992 36Z" fill="#FFCC1B"/>
</svg>
