<svg width="21" height="20" viewBox="0 0 21 20" fill="none" xmlns="http://www.w3.org/2000/svg">
<path d="M20.9043 10C20.9043 4.47715 16.4271 0 10.9043 0C5.38144 0 0.904297 4.47715 0.904297 10C0.904297 14.9913 4.56115 19.1283 9.3418 19.8785V12.8906H6.80274V10H9.3418V7.79688C9.3418 5.29062 10.8347 3.90625 13.1189 3.90625C14.213 3.90625 15.3574 4.10156 15.3574 4.10156V6.5625H14.0964C12.8542 6.5625 12.4668 7.33334 12.4668 8.12417V10H15.2402L14.7969 12.8906H12.4668V19.8785C17.2474 19.1283 20.9043 14.9913 20.9043 10Z" fill="white"/>
<path d="M14.7969 12.8906L15.2402 10H12.4668V8.12415C12.4668 7.33334 12.8542 6.56249 14.0964 6.56249H15.3574V4.10156C15.3574 4.10156 14.213 3.90625 13.1189 3.90625C10.8347 3.90625 9.34179 5.29062 9.34179 7.79688V10H6.80273V12.8906H9.34179V19.8785C9.85868 19.9595 10.3811 20.0001 10.9043 20C11.4359 20 11.9577 19.9584 12.4668 19.8785V12.8906H14.7969Z" fill="#061651"/>
</svg>
