<svg width="20" height="20" viewBox="0 0 20 20" fill="none" xmlns="http://www.w3.org/2000/svg">
<rect width="19.9043" height="20" rx="9.95217" fill="white"/>
<g clipPath="url(#clip0_145_2685)">
<path d="M14.9844 12.5587L14.5303 14.5275C14.4665 14.8058 14.2219 15.0005 13.9354 15.0005C9.00781 15.0001 5 10.9923 5 6.06457C5 5.77824 5.19471 5.53332 5.47305 5.46984L7.4418 5.01574C7.72852 4.94929 8.02148 5.09812 8.14062 5.36965L9.04922 7.48879C9.15543 7.7384 9.08379 8.02922 8.87383 8.2007L7.82227 9.04504C8.48594 10.397 9.58516 11.4962 10.9375 12.1603L11.7984 11.1095C11.9681 10.8989 12.2611 10.8261 12.5107 10.9342L14.6299 11.8426C14.8848 11.9767 15.0508 12.2736 14.9844 12.5587Z" fill="#061651"/>
</g>
<defs>
<clipPath id="clip0_145_2685">
<rect width="10" height="10" fill="white" transform="translate(5 5)"/>
</clipPath>
</defs>
</svg>
