<svg width="21" height="20" viewBox="0 0 21 20" fill="none" xmlns="http://www.w3.org/2000/svg">
<g clipPath="url(#clip0_145_2692)">
<path d="M11.0334 0C5.51061 0 1.0332 4.4766 1.0332 9.99939C1.0332 15.5222 5.51061 19.9996 11.0334 19.9996C16.5558 19.9996 21.0332 15.5222 21.0332 9.99939C21.0332 4.4766 16.5558 0 11.0334 0ZM10.5653 5.28258C10.6467 5.20807 10.7038 5.19771 10.9862 5.20636C11.1334 5.21156 11.35 5.22886 11.4678 5.2427C12.0637 5.31718 12.5453 5.46098 13.0736 5.71906C13.5933 5.97372 13.9258 6.2145 14.3659 6.65276C14.7782 7.06678 15.0068 7.38033 15.2493 7.86708C15.5871 8.54612 15.7794 9.35337 15.8123 10.242C15.8245 10.5451 15.8158 10.6127 15.7465 10.6993C15.6149 10.8673 15.3256 10.8397 15.2268 10.6508C15.1956 10.5884 15.187 10.5348 15.1766 10.2923C15.1593 9.91984 15.1333 9.67906 15.0813 9.3915C14.8769 8.2638 14.3365 7.36299 13.4738 6.71689C12.7549 6.17641 12.0117 5.91314 11.0382 5.85596C10.7091 5.83691 10.652 5.82477 10.5775 5.76759C10.4388 5.65847 10.4319 5.4021 10.5653 5.28258ZM12.6301 7.51374C12.2819 7.30589 11.7674 7.1517 11.298 7.11361C11.1282 7.09972 11.0347 7.06512 10.9706 6.9906C10.8719 6.87799 10.8615 6.72558 10.9446 6.59912C11.0347 6.45881 11.1732 6.43627 11.5873 6.49865C12.6388 6.6528 13.4529 7.14134 13.9865 7.9347C14.2862 8.38161 14.4733 8.90654 14.5374 9.46947C14.5599 9.67565 14.5599 10.0515 14.5356 10.1139C14.5131 10.1728 14.4403 10.2525 14.378 10.2854C14.3104 10.32 14.1667 10.3166 14.087 10.275C13.9535 10.2074 13.9137 10.1 13.9137 9.80901C13.9137 9.36035 13.7976 8.88745 13.5967 8.52017C13.3681 8.101 13.0355 7.75455 12.6301 7.51374ZM13.2156 9.82286C13.1134 9.91638 12.9246 9.91988 12.8103 9.83155C12.7271 9.76917 12.7011 9.70334 12.682 9.52495C12.6596 9.28762 12.618 9.12132 12.547 8.96713C12.3945 8.63973 12.126 8.46998 11.6722 8.41455C11.4591 8.38856 11.395 8.36431 11.3257 8.28289C11.1993 8.13214 11.2477 7.88792 11.4227 7.79784C11.4886 7.76491 11.5163 7.76146 11.6618 7.77015C11.7518 7.77535 11.8852 7.7909 11.9563 7.80653C12.2975 7.87927 12.5591 8.00918 12.7826 8.21881C13.0701 8.49077 13.2278 8.81992 13.297 9.29282C13.3438 9.60113 13.3247 9.72239 13.2156 9.82286ZM15.8036 14.3736C15.6754 14.7044 15.1766 15.3246 14.8283 15.5896C14.5131 15.8286 14.2896 15.9204 13.9951 15.9343C13.7526 15.9464 13.6521 15.9256 13.342 15.7975C10.9099 14.7945 8.96807 13.2979 7.42635 11.2416C6.62085 10.1676 6.0076 9.05379 5.58838 7.89835C5.34415 7.22451 5.33201 6.93175 5.53295 6.58702C5.61961 6.44151 5.98855 6.08118 6.25707 5.88024C6.70402 5.54765 6.91016 5.42464 7.07471 5.39C7.18728 5.36575 7.38302 5.3848 7.50777 5.42984C7.5684 5.45059 7.66193 5.49908 7.71565 5.53376C8.04476 5.75204 8.96116 6.92477 9.26082 7.51028C9.43228 7.84459 9.48946 8.09231 9.43577 8.27594C9.3803 8.47343 9.28852 8.57735 8.87795 8.90824C8.7134 9.0416 8.5592 9.17846 8.535 9.21485C8.47262 9.30492 8.42239 9.48161 8.42239 9.60633C8.42414 9.89563 8.61123 10.4205 8.8572 10.8241C9.04774 11.1377 9.38899 11.5395 9.72678 11.8479C10.1235 12.2117 10.4734 12.4594 10.8683 12.6552C11.3759 12.908 11.686 12.9722 11.9129 12.8665C11.9701 12.8405 12.0307 12.8059 12.0498 12.7903C12.0671 12.7747 12.2005 12.6119 12.346 12.4318C12.6266 12.0783 12.6907 12.0212 12.883 11.9554C13.1273 11.8722 13.3767 11.8947 13.6279 12.0229C13.8184 12.1217 14.2342 12.3798 14.5027 12.5668C14.856 12.8146 15.6113 13.4313 15.7135 13.5543C15.8937 13.776 15.9249 14.06 15.8036 14.3736Z" fill="white"/>
</g>
<defs>
<clipPath id="clip0_145_2692">
<rect width="20" height="20" fill="white" transform="translate(0.904297)"/>
</clipPath>
</defs>
</svg>
