<svg width="21" height="20" viewBox="0 0 21 20" fill="none" xmlns="http://www.w3.org/2000/svg">
<g clipPath="url(#clip0_145_2694)">
<path d="M10.9043 0C5.38117 0 0.904297 4.47688 0.904297 10C0.904297 15.5225 5.38117 20 10.9043 20C16.4274 20 20.9043 15.5225 20.9043 10C20.9043 4.47688 16.4274 0 10.9043 0Z" fill="white"/>
<path d="M16.0886 14.3388V10.5032C16.0886 8.4482 14.9917 7.49195 13.5286 7.49195C12.348 7.49195 11.8192 8.14133 11.5248 8.59695V7.64883H9.30109C9.33047 8.27695 9.30109 14.3388 9.30109 14.3388H11.5248V10.6026C11.5248 10.4032 11.5392 10.2032 11.598 10.0607C11.7586 9.66133 12.1242 9.24758 12.7386 9.24758C13.5436 9.24758 13.8655 9.8607 13.8655 10.7601V14.3395L16.0886 14.3388ZM6.95797 6.7357C7.73297 6.7357 8.21609 6.22133 8.21609 5.57945C8.20172 4.9232 7.73297 4.42383 6.97234 4.42383C6.21172 4.42383 5.71484 4.9232 5.71484 5.57945C5.71484 6.22195 6.19734 6.7357 6.94422 6.7357H6.95797ZM8.06984 14.3388V7.64883H5.84672V14.3388H8.06984Z" fill="#061651"/>
</g>
<defs>
<clipPath id="clip0_145_2694">
<rect width="20" height="20" fill="white" transform="translate(0.904297)"/>
</clipPath>
</defs>
</svg>
